<?xml version="1.0" encoding="utf-8"?>
<COLLADA xmlns="http://www.collada.org/2005/11/COLLADASchema" version="1.4.1" xmlns:xsi="http://www.w3.org/2001/XMLSchema-instance">
  <asset>
    <contributor>
      <author>Blender User</author>
      <authoring_tool>Blender 3.0.1</authoring_tool>
    </contributor>
    <created>2025-12-24T23:49:38</created>
    <modified>2025-12-24T23:49:38</modified>
    <unit name="meter" meter="1"/>
    <up_axis>Z_UP</up_axis>
  </asset>
  <library_cameras>
    <camera id="Camera_001-camera" name="Camera.001">
      <optics>
        <technique_common>
          <perspective>
            <xfov sid="xfov">39.59775</xfov>
            <aspect_ratio>1.777778</aspect_ratio>
            <znear sid="znear">0.1</znear>
            <zfar sid="zfar">100</zfar>
          </perspective>
        </technique_common>
      </optics>
      <extra>
        <technique profile="blender">
          <shiftx sid="shiftx" type="float">0</shiftx>
          <shifty sid="shifty" type="float">0</shifty>
          <dof_distance sid="dof_distance" type="float">10</dof_distance>
        </technique>
      </extra>
    </camera>
    <camera id="Camera-camera" name="Camera">
      <optics>
        <technique_common>
          <perspective>
            <xfov sid="xfov">39.59775</xfov>
            <aspect_ratio>1.777778</aspect_ratio>
            <znear sid="znear">0.1</znear>
            <zfar sid="zfar">100</zfar>
          </perspective>
        </technique_common>
      </optics>
      <extra>
        <technique profile="blender">
          <shiftx sid="shiftx" type="float">0</shiftx>
          <shifty sid="shifty" type="float">0</shifty>
          <dof_distance sid="dof_distance" type="float">10</dof_distance>
        </technique>
      </extra>
    </camera>
  </library_cameras>
  <library_lights>
    <light id="Light_001-light" name="Light.001">
      <technique_common>
        <point>
          <color sid="color">1000 1000 1000</color>
          <constant_attenuation>1</constant_attenuation>
          <linear_attenuation>0</linear_attenuation>
          <quadratic_attenuation>0.00111109</quadratic_attenuation>
        </point>
      </technique_common>
      <extra>
        <technique profile="blender">
          <type sid="type" type="int">0</type>
          <flag sid="flag" type="int">0</flag>
          <mode sid="mode" type="int">1</mode>
          <gamma sid="blender_gamma" type="float">1</gamma>
          <red sid="red" type="float">1</red>
          <green sid="green" type="float">1</green>
          <blue sid="blue" type="float">1</blue>
          <shadow_r sid="blender_shadow_r" type="float">0</shadow_r>
          <shadow_g sid="blender_shadow_g" type="float">0</shadow_g>
          <shadow_b sid="blender_shadow_b" type="float">0</shadow_b>
          <energy sid="blender_energy" type="float">1000</energy>
          <dist sid="blender_dist" type="float">29.99998</dist>
          <spotsize sid="spotsize" type="float">75</spotsize>
          <spotblend sid="spotblend" type="float">0.15</spotblend>
          <att1 sid="att1" type="float">0</att1>
          <att2 sid="att2" type="float">1</att2>
          <falloff_type sid="falloff_type" type="int">2</falloff_type>
          <clipsta sid="clipsta" type="float">0.04999995</clipsta>
          <clipend sid="clipend" type="float">30.002</clipend>
          <bias sid="bias" type="float">1</bias>
          <soft sid="soft" type="float">3</soft>
          <bufsize sid="bufsize" type="int">2880</bufsize>
          <samp sid="samp" type="int">3</samp>
          <buffers sid="buffers" type="int">1</buffers>
          <area_shape sid="area_shape" type="int">1</area_shape>
          <area_size sid="area_size" type="float">0.1</area_size>
          <area_sizey sid="area_sizey" type="float">0.1</area_sizey>
          <area_sizez sid="area_sizez" type="float">1</area_sizez>
        </technique>
      </extra>
    </light>
    <light id="Light-light" name="Light">
      <technique_common>
        <point>
          <color sid="color">1000 1000 1000</color>
          <constant_attenuation>1</constant_attenuation>
          <linear_attenuation>0</linear_attenuation>
          <quadratic_attenuation>0.00111109</quadratic_attenuation>
        </point>
      </technique_common>
      <extra>
        <technique profile="blender">
          <type sid="type" type="int">0</type>
          <flag sid="flag" type="int">0</flag>
          <mode sid="mode" type="int">1</mode>
          <gamma sid="blender_gamma" type="float">1</gamma>
          <red sid="red" type="float">1</red>
          <green sid="green" type="float">1</green>
          <blue sid="blue" type="float">1</blue>
          <shadow_r sid="blender_shadow_r" type="float">0</shadow_r>
          <shadow_g sid="blender_shadow_g" type="float">0</shadow_g>
          <shadow_b sid="blender_shadow_b" type="float">0</shadow_b>
          <energy sid="blender_energy" type="float">1000</energy>
          <dist sid="blender_dist" type="float">29.99998</dist>
          <spotsize sid="spotsize" type="float">75</spotsize>
          <spotblend sid="spotblend" type="float">0.15</spotblend>
          <att1 sid="att1" type="float">0</att1>
          <att2 sid="att2" type="float">1</att2>
          <falloff_type sid="falloff_type" type="int">2</falloff_type>
          <clipsta sid="clipsta" type="float">0.04999995</clipsta>
          <clipend sid="clipend" type="float">30.002</clipend>
          <bias sid="bias" type="float">1</bias>
          <soft sid="soft" type="float">3</soft>
          <bufsize sid="bufsize" type="int">2880</bufsize>
          <samp sid="samp" type="int">3</samp>
          <buffers sid="buffers" type="int">1</buffers>
          <area_shape sid="area_shape" type="int">1</area_shape>
          <area_size sid="area_size" type="float">0.1</area_size>
          <area_sizey sid="area_sizey" type="float">0.1</area_sizey>
          <area_sizez sid="area_sizez" type="float">1</area_sizez>
        </technique>
      </extra>
    </light>
  </library_lights>
  <library_effects>
    <effect id="Material_002-effect">
      <profile_COMMON>
        <technique sid="common">
          <lambert>
            <emission>
              <color sid="emission">0 0 0 1</color>
            </emission>
            <diffuse>
              <color sid="diffuse">0.0527923 0.3457817 0.8001335 1</color>
            </diffuse>
            <index_of_refraction>
              <float sid="ior">1.5</float>
            </index_of_refraction>
          </lambert>
        </technique>
      </profile_COMMON>
    </effect>
  </library_effects>
  <library_images/>
  <library_materials>
    <material id="Material_002-material" name="Material.002">
      <instance_effect url="#Material_002-effect"/>
    </material>
  </library_materials>
  <library_geometries>
    <geometry id="Cube_001-mesh" name="Cube.001">
      <mesh>
        <source id="Cube_001-mesh-positions">
          <float_array id="Cube_001-mesh-positions-array" count="552">-1 -1 -1 -1 -1 0.4817239 -1 1 -1 -1 1 0.4817239 1 -1 -1 1 -1 0.4817239 1 1 -1 1 1 0.4817239 -1 -3.392631 -1 -1 -3.392631 0.4817239 1 -3.392631 0.4817239 1 -3.392631 -1 -1 -3.539357 -1 -1 -3.539357 0.4817239 1 -3.539357 0.4817239 1 -3.539357 -1 14.34754 -3.392631 0.4817239 14.34754 -3.392631 -1 14.34754 -3.539357 0.4817239 14.34754 -3.539357 -1 16.11691 -3.392631 0.4817239 16.11691 -3.392631 -1 16.11691 -3.539357 0.4817239 16.11691 -3.539357 -1 14.34754 -1.23723 0.4817239 14.34754 -1.23723 -1 16.11691 -1.23723 0.4817239 16.11691 -1.23723 -1 14.34754 1.010736 0.4817239 14.34754 1.010736 -1 16.11691 1.010736 0.4817239 16.11691 1.010736 -1 -1 1.244204 0.4817239 -1 1.244204 -1 1 1.244204 -1 1 1.244204 0.4817239 -1 2.951447 0.4817239 -1 2.951447 -1 1 2.951447 -1 1 2.951447 0.4817239 -1 4.607226 0.4817239 -1 4.607226 -1 1 4.607226 -1 1 4.607226 0.4817239 -1 4.822609 0.4817239 -1 4.822609 -1 1 4.822609 -1 1 4.822609 0.4817239 20.10137 4.607226 0.4817239 20.10137 4.607226 -1 20.10137 4.822609 0.4817239 20.10137 4.822609 -1 1 3.104434 0.4817239 -1 3.104434 0.4817239 -1 3.104434 -1 1 3.104434 -1 12.23679 2.951447 0.4817239 12.23679 2.951447 -1 12.23679 3.104434 0.4817239 12.23679 3.104434 -1 14.34754 1.21261 0.4817239 14.34754 1.21261 -1 16.11691 1.21261 0.4817239 16.11691 1.21261 -1 32.48305 1.010736 0.4817239 32.48305 1.010736 -1 32.48305 1.21261 0.4817239 32.48305 1.21261 -1 33.94751 1.010736 0.4817239 33.94751 1.010736 -1 33.94751 1.21261 0.4817239 33.94751 1.21261 -1 32.48305 6.003865 0.4817239 32.48305 6.003865 -1 33.94751 6.003865 0.4817239 33.94751 6.003865 -1 21.99034 4.607226 0.4817239 21.99034 4.607226 -1 21.99034 4.822609 0.4817239 21.99034 4.822609 -1 33.94751 2.874942 -1 33.94751 3.029506 -1 33.94751 3.029506 0.4817239 33.94751 2.874942 0.4817239 32.48305 3.029506 0.4817239 32.48305 2.874942 0.4817239 32.48305 3.029506 -1 32.48305 2.874942 -1 20.94375 3.029506 0.4817239 20.94375 2.874942 0.4817239 20.94375 3.029506 -1 20.94375 2.874942 -1 20.10137 6.007063 0.4817239 20.10137 6.007063 -1 21.99034 6.007063 0.4817239 21.99034 6.007063 -1 -1 7.287576 0.4817239 -1 7.287576 -1 1 7.287576 -1 1 7.287576 0.4817239 -1 7.449998 0.4817239 -1 7.449998 -1 1 7.449998 -1 1 7.449998 0.4817239 62.90642 7.287576 0.4817239 62.90642 7.287576 -1 62.90642 7.449998 0.4817239 62.90642 7.449998 -1 46.62864 7.449998 -1 46.62864 7.287576 -1 46.62864 7.449998 0.4817239 46.62864 7.287576 0.4817239 48.18348 7.449998 -1 48.18348 7.449998 0.4817239 48.18348 7.287576 -1 48.18348 7.287576 0.4817239 48.18348 5.006209 -1 46.62864 5.006209 -1 48.18348 5.006209 0.4817239 46.62864 5.006209 0.4817239 61.83589 7.449998 -1 61.83589 7.449998 0.4817239 61.83589 7.287576 -1 61.83589 7.287576 0.4817239 62.90642 -3.461989 0.4817239 62.90642 -3.461989 -1 61.83589 -3.461989 -1 61.83589 -3.461989 0.4817239 62.90642 1.193646 -1 61.83589 1.193646 -1 61.83589 1.193646 0.4817239 62.90642 1.193646 0.4817239 62.90642 1.048183 -1 61.83589 1.048183 -1 61.83589 1.048183 0.4817239 62.90642 1.048183 0.4817239 49.70363 1.048183 -1 49.70363 1.193646 -1 49.70363 1.048183 0.4817239 49.70363 1.193646 0.4817239 48.42034 1.048183 -1 48.42034 1.193646 -1 48.42034 1.048183 0.4817239 48.42034 1.193646 0.4817239 49.70363 -0.3575593 -1 49.70363 -0.3575593 0.4817239 48.42034 -0.3575593 -1 48.42034 -0.3575593 0.4817239 49.70363 -0.5206921 -1 49.70363 -0.5206921 0.4817239 48.42034 -0.5206921 -1 48.42034 -0.5206921 0.4817239 28.92425 -0.3575593 -1 28.92425 -0.3575593 0.4817239 28.92425 -0.5206921 -1 28.92425 -0.5206921 0.4817239 27.98363 -0.3575593 -1 27.98363 -0.3575593 0.4817239 27.98363 -0.5206921 -1 27.98363 -0.5206921 0.4817239 28.92425 -1.998073 -1 28.92425 -1.998073 0.4817239 27.98363 -1.998073 -1 27.98363 -1.998073 0.4817239 28.92425 -2.107249 -1 28.92425 -2.107249 0.4817239 27.98363 -2.107249 -1 27.98363 -2.107249 0.4817239 49.46102 -1.998073 -1 49.46102 -1.998073 0.4817239 49.46102 -2.107249 -1 49.46102 -2.107249 0.4817239 -1 -3.392631 -1 -1 -3.392631 0.4817239 1 -3.392631 -1 1 -3.392631 0.4817239 62.90642 -3.392258 -1 61.83589 -3.392258 -1 61.83589 -3.392258 0.4817239 62.90642 -3.392258 0.4817239 46.91307 2.874942 -1 46.91307 3.029506 -1 46.91307 3.029506 0.4817239 46.91307 2.874942 0.4817239</float_array>
          <technique_common>
            <accessor source="#Cube_001-mesh-positions-array" count="184" stride="3">
              <param name="X" type="float"/>
              <param name="Y" type="float"/>
              <param name="Z" type="float"/>
            </accessor>
          </technique_common>
        </source>
        <source id="Cube_001-mesh-normals">
          <float_array id="Cube_001-mesh-normals-array" count="30">-1 0 0 0 0 1 1 0 0 0 0 -1 0 -1 0 0 1 0 -8.16127e-6 1 0 0.001692235 -0.9999986 0 -8.16127e-6 1 0 0.001692235 -0.9999986 0</float_array>
          <technique_common>
            <accessor source="#Cube_001-mesh-normals-array" count="10" stride="3">
              <param name="X" type="float"/>
              <param name="Y" type="float"/>
              <param name="Z" type="float"/>
            </accessor>
          </technique_common>
        </source>
        <source id="Cube_001-mesh-map-0">
          <float_array id="Cube_001-mesh-map-0-array" count="2112">0.625 0 0.375 0.25 0.375 0 0.625 0.5 0.8750001 0.5 0.8750001 0.5 0.625 0.5 0.375 0.75 0.375 0.5 0.375 0 0.625 0 0.625 0 0.375 0.5 0.125 0.75 0.125 0.5 0.8750001 0.5 0.625 0.75 0.625 0.5 0.375 0.75 0.125 0.75 0.125 0.75 0.375 0.75 0.125 0.75 0.125 0.75 0.8750001 0.75 0.625 0.75 0.625 0.75 0.625 0.75 0.375 0.75 0.375 0.75 0.625 0.75 0.375 1 0.375 0.75 0.375 0 0.625 0 0.625 0 0.8750001 0.75 0.625 0.75 0.625 0.75 0.375 0.75 0.375 0.75 0.375 0.75 0.625 0.75 0.375 0.75 0.375 0.75 0.625 0.75 0.625 0.75 0.625 0.75 0.625 0.75 0.625 0.75 0.625 0.75 0.375 0.75 0.625 0.75 0.625 0.75 0.625 0.75 0.625 0.75 0.625 0.75 0.375 0.75 0.375 0.75 0.375 0.75 0.375 0.75 0.625 0.75 0.625 0.75 0.625 0.75 0.375 0.75 0.375 0.75 0.375 0.75 0.375 0.75 0.375 0.75 0.375 0.75 0.625 0.75 0.625 0.75 0.375 0.75 0.375 0.75 0.375 0.75 0.625 0.75 0.375 0.75 0.375 0.75 0.625 0.5 0.8750001 0.5 0.8750001 0.5 0.625 0.25 0.375 0.25 0.375 0.25 0.375 0.5 0.625 0.5 0.625 0.5 0.125 0.5 0.375 0.5 0.375 0.5 0.625 0.5 0.8750001 0.5 0.8750001 0.5 0.625 0.25 0.375 0.25 0.375 0.25 0.375 0.5 0.625 0.5 0.625 0.5 0.125 0.5 0.375 0.5 0.375 0.5 0.375 0.5 0.625 0.5 0.625 0.5 0.625 0.25 0.375 0.25 0.375 0.25 0.375 0.5 0.625 0.5 0.625 0.5 0.125 0.5 0.375 0.5 0.375 0.5 0.625 0.5 0.8750001 0.5 0.8750001 0.5 0.125 0.5 0.375 0.5 0.375 0.5 0.625 0.5 0.8750001 0.5 0.8750001 0.5 0.625 0.25 0.375 0.25 0.375 0.25 0.625 0.5 0.625 0.5 0.625 0.5 0.375 0.5 0.375 0.5 0.375 0.5 0.625 0.5 0.625 0.5 0.625 0.5 0.625 0.5 0.375 0.5 0.375 0.5 0.125 0.5 0.375 0.5 0.375 0.5 0.625 0.5 0.625 0.5 0.625 0.5 0.625 0.25 0.375 0.25 0.375 0.25 0.625 0.5 0.8750001 0.5 0.8750001 0.5 0.375 0.5 0.625 0.5 0.625 0.5 0.625 0.5 0.375 0.5 0.375 0.5 0.375 0.5 0.375 0.5 0.375 0.5 0.375 0.5 0.625 0.5 0.625 0.5 0.625 0.75 0.375 0.75 0.375 0.75 0.625 0.75 0.375 0.75 0.375 0.75 0.625 0.75 0.625 0.75 0.625 0.75 0.625 0.75 0.625 0.75 0.625 0.75 0.375 0.75 0.625 0.75 0.625 0.75 0.375 0.75 0.375 0.75 0.375 0.75 0.375 0.75 0.625 0.75 0.625 0.75 0.625 0.75 0.375 0.75 0.375 0.75 0.375 0.75 0.625 0.75 0.625 0.75 0.625 0.75 0.625 0.75 0.625 0.75 0.375 0.75 0.625 0.75 0.625 0.75 0.375 0.75 0.375 0.75 0.375 0.75 0.625 0.75 0.375 0.75 0.375 0.75 0.625 0.75 0.625 0.75 0.625 0.75 0.625 0.75 0.375 0.75 0.375 0.75 0.375 0.75 0.375 0.75 0.375 0.75 0.625 0.75 0.375 0.75 0.375 0.75 0.375 0.5 0.625 0.5 0.625 0.5 0.375 0.5 0.375 0.5 0.375 0.5 0.375 0.5 0.375 0.5 0.375 0.5 0.375 0.5 0.625 0.5 0.625 0.5 0.375 0.75 0.375 0.75 0.375 0.75 0.375 0.75 0.375 0.75 0.375 0.75 0.625 0.75 0.625 0.75 0.625 0.75 0.375 0.75 0.625 0.75 0.375 0.75 0.625 0.75 0.625 0.75 0.625 0.75 0.625 0.75 0.375 0.75 0.375 0.75 0.625 0.75 0.625 0.75 0.625 0.75 0.625 0.75 0.375 0.75 0.375 0.75 0.375 0.75 0.625 0.75 0.625 0.75 0.625 0.5 0.375 0.5 0.375 0.5 0.625 0.5 0.375 0.5 0.375 0.5 0.625 0.5 0.625 0.5 0.625 0.5 0.375 0.5 0.625 0.5 0.625 0.5 0.625 0.5 0.8750001 0.5 0.8750001 0.5 0.625 0.25 0.375 0.25 0.375 0.25 0.375 0.5 0.625 0.5 0.625 0.5 0.125 0.5 0.375 0.5 0.375 0.5 0.625 0.25 0.375 0.5 0.375 0.25 0.625 0.25 0.375 0.25 0.375 0.25 0.375 0.5 0.375 0.5 0.375 0.5 0.125 0.5 0.375 0.5 0.375 0.5 0.375 0.5 0.625 0.5 0.625 0.5 0.625 0.5 0.375 0.5 0.375 0.5 0.375 0.5 0.375 0.5 0.375 0.5 0.625 0.5 0.625 0.5 0.625 0.5 0.625 0.5 0.625 0.5 0.625 0.5 0.375 0.5 0.625 0.5 0.625 0.5 0.625 0.5 0.375 0.5 0.375 0.5 0.375 0.5 0.375 0.5 0.375 0.5 0.625 0.5 0.6249999 0.5 0.625 0.5 0.625 0.5 0.375 0.5 0.375 0.5 0.625 0.5 0.375 0.5 0.375 0.5 0.375 0.5 0.375 0.5 0.375 0.5 0.375 0.5 0.625 0.5 0.625 0.5 0.375 0.5 0.625 0.5 0.625 0.5 0.625 0.5 0.625 0.5 0.625 0.5 0.375 0.5 0.375 0.5 0.375 0.5 0.375 0.5 0.625 0.5 0.625 0.5 0.625 0.5 0.375 0.5 0.625 0.5 0.625 0.5 0.625 0.5 0.625 0.5 0.625 0.5 0.375 0.5 0.375 0.5 0.625 0.5 0.375 0.5 0.375 0.5 0.625 0.5 0.625 0.5 0.625 0.5 0.375 0.5 0.625 0.5 0.625 0.5 0.375 0.5 0.375 0.5 0.375 0.5 0.625 0.5 0.375 0.5 0.375 0.5 0.625 0.5 0.625 0.5 0.625 0.5 0.625 0.5 0.375 0.5 0.375 0.5 0.375 0.5 0.375 0.5 0.375 0.5 0.625 0.5 0.375 0.5 0.375 0.5 0.375 0.5 0.375 0.5 0.375 0.5 0.375 0.5 0.625 0.5 0.625 0.5 0.625 0.5 0.625 0.5 0.625 0.5 0.375 0.5 0.625 0.5 0.625 0.5 0.625 0.5 0.625 0.5 0.625 0.5 0.375 0.5 0.625 0.5 0.625 0.5 0.375 0.5 0.375 0.5 0.375 0.5 0.625 0.5 0.625 0.5 0.625 0.5 0.625 0.5 0.625 0.5 0.625 0.5 0.375 0.5 0.375 0.5 0.375 0.5 0.375 0.5 0.625 0.5 0.625 0.5 0.625 0.5 0.375 0.5 0.375 0.5 0.625 0.5 0.375 0.5 0.375 0.5 0.375 0.5 0.375 0.5 0.375 0.5 0.375 0.5 0.375 0.5 0.375 0.5 0.625 0.5 0.625 0.5 0.625 0.5 0.625 0.5 0.375 0.5 0.375 0.5 0.375 0.5 0.625 0.5 0.625 0.5 0.625 0.5 0.625 0.5 0.625 0.5 0.375 0.5 0.625 0.5 0.625 0.5 0.375 0.5 0.625 0.5 0.625 0.5 0.375 0.5 0.375 0.5 0.375 0.5 0.375 0.5 0.375 0.5 0.375 0.5 0.375 0.5 0.375 0.5 0.375 0.5 0.625 0.5 0.625 0.5 0.625 0.5 0.375 0.5 0.625 0.5 0.625 0.5 0.625 0.5 0.375 0.5 0.375 0.5 0.625 0.5 0.375 0.5 0.375 0.5 0.375 0.5 0.625 0.5 0.625 0.5 0.625 0.5 0.625 0.5 0.625 0.5 0.375 0.5 0.375 0.5 0.375 0.5 0.625 0.5 0.375 0.5 0.375 0.5 0.375 0.5 0.625 0.5 0.625 0.5 0.625 0.5 0.625 0.5 0.625 0.5 0.625 0.5 0.375 0.5 0.375 0.5 0.625 0.75 0.375 0.75 0.375 0.75 0.8750001 0.75 0.625 0.75 0.625 0.75 0.375 0.75 0.125 0.75 0.125 0.75 0.375 0 0.625 0 0.625 0 0.625 0.5 0.375 0.5 0.375 0.5 0.625 0.5 0.625 0.5 0.625 0.5 0.375 0.5 0.625 0.5 0.625 0.5 0.375 0.5 0.375 0.5 0.375 0.5 0.625 0.75 0.375 0.5 0.375 0.75 0.375 0.75 0.375 0.5 0.375 0.75 0.375 0.5 0.625 0.75 0.375 0.75 0.625 0.75 0.625 0.5 0.625 0.5 0.375 0.75 0.625 0.75 0.625 0.75 0.375 0.75 0.625 0.75 0.625 0.75 0.375 0.75 0.375 0.75 0.375 0.75 0.625 0.75 0.375 0.75 0.375 0.75 0.625 0 0.625 0.25 0.375 0.25 0.625 0.5 0.625 0.5 0.8750001 0.5 0.625 0.5 0.625 0.75 0.375 0.75 0.375 0 0.375 0 0.625 0 0.375 0.5 0.375 0.75 0.125 0.75 0.8750001 0.5 0.8750001 0.75 0.625 0.75 0.375 0.75 0.375 0.75 0.125 0.75 0.375 0.75 0.375 0.75 0.125 0.75 0.8750001 0.75 0.8750001 0.75 0.625 0.75 0.625 0.75 0.625 0.75 0.375 0.75 0.625 0.75 0.625 1 0.375 1 0.375 0 0.375 0 0.625 0 0.8750001 0.75 0.8750001 0.75 0.625 0.75 0.375 0.75 0.375 0.75 0.375 0.75 0.625 0.75 0.625 0.75 0.375 0.75 0.625 0.75 0.625 0.75 0.625 0.75 0.625 0.75 0.625 0.75 0.625 0.75 0.375 0.75 0.375 0.75 0.625 0.75 0.625 0.75 0.625 0.75 0.625 0.75 0.375 0.75 0.375 0.75 0.375 0.75 0.375 0.75 0.375 0.75 0.625 0.75 0.625 0.75 0.625 0.75 0.375 0.75 0.375 0.75 0.375 0.75 0.375 0.75 0.375 0.75 0.375 0.75 0.625 0.75 0.375 0.75 0.375 0.75 0.375 0.75 0.625 0.75 0.625 0.75 0.375 0.75 0.625 0.5 0.625 0.5 0.8750001 0.5 0.625 0.25 0.625 0.25 0.375 0.25 0.375 0.5 0.375 0.5 0.625 0.5 0.125 0.5 0.125 0.5 0.375 0.5 0.625 0.5 0.625 0.5 0.8750001 0.5 0.625 0.25 0.625 0.25 0.375 0.25 0.375 0.5 0.375 0.5 0.625 0.5 0.125 0.5 0.125 0.5 0.375 0.5 0.375 0.5 0.375 0.5 0.625 0.5 0.625 0.25 0.625 0.25 0.375 0.25 0.375 0.5 0.375 0.5 0.625 0.5 0.125 0.5 0.125 0.5 0.375 0.5 0.625 0.5 0.625 0.5 0.8750001 0.5 0.125 0.5 0.125 0.5 0.375 0.5 0.625 0.5 0.625 0.5 0.8750001 0.5 0.625 0.25 0.625 0.25 0.375 0.25 0.625 0.5 0.625 0.5 0.625 0.5 0.375 0.5 0.375 0.5 0.375 0.5 0.625 0.5 0.625 0.5 0.625 0.5 0.625 0.5 0.625 0.5 0.375 0.5 0.125 0.5 0.125 0.5 0.375 0.5 0.625 0.5 0.625 0.5 0.625 0.5 0.625 0.25 0.625 0.25 0.375 0.25 0.625 0.5 0.625 0.5 0.8750001 0.5 0.375 0.5 0.375 0.5 0.625 0.5 0.625 0.5 0.625 0.5 0.375 0.5 0.375 0.5 0.375 0.5 0.375 0.5 0.375 0.5 0.375 0.5 0.625 0.5 0.625 0.75 0.625 0.75 0.375 0.75 0.625 0.75 0.625 0.75 0.375 0.75 0.625 0.75 0.625 0.75 0.625 0.75 0.625 0.75 0.625 0.75 0.625 0.75 0.375 0.75 0.375 0.75 0.625 0.75 0.375 0.75 0.375 0.75 0.375 0.75 0.375 0.75 0.375 0.75 0.625 0.75 0.625 0.75 0.625 0.75 0.375 0.75 0.375 0.75 0.375 0.75 0.625 0.75 0.625 0.75 0.625 0.75 0.625 0.75 0.375 0.75 0.375 0.75 0.625 0.75 0.375 0.75 0.375 0.75 0.375 0.75 0.625 0.75 0.625 0.75 0.375 0.75 0.625 0.75 0.625 0.75 0.625 0.75 0.625 0.75 0.625 0.75 0.375 0.75 0.375 0.75 0.375 0.75 0.375 0.75 0.625 0.75 0.625 0.75 0.375 0.75 0.375 0.5 0.375 0.5 0.625 0.5 0.375 0.5 0.375 0.5 0.375 0.5 0.375 0.5 0.375 0.5 0.375 0.5 0.375 0.5 0.375 0.5 0.625 0.5 0.375 0.75 0.375 0.75 0.375 0.75 0.375 0.75 0.375 0.75 0.375 0.75 0.625 0.75 0.625 0.75 0.625 0.75 0.375 0.75 0.625 0.75 0.625 0.75 0.625 0.75 0.625 0.75 0.625 0.75 0.625 0.75 0.625 0.75 0.375 0.75 0.625 0.75 0.625 0.75 0.625 0.75 0.625 0.75 0.625 0.75 0.375 0.75 0.375 0.75 0.375 0.75 0.625 0.75 0.625 0.5 0.625 0.5 0.375 0.5 0.625 0.5 0.625 0.5 0.375 0.5 0.625 0.5 0.625 0.5 0.625 0.5 0.375 0.5 0.375 0.5 0.625 0.5 0.625 0.5 0.625 0.5 0.8750001 0.5 0.625 0.25 0.625 0.25 0.375 0.25 0.375 0.5 0.375 0.5 0.625 0.5 0.125 0.5 0.125 0.5 0.375 0.5 0.625 0.25 0.625 0.5 0.375 0.5 0.625 0.25 0.625 0.25 0.375 0.25 0.375 0.5 0.375 0.5 0.375 0.5 0.125 0.5 0.125 0.5 0.375 0.5 0.375 0.5 0.375 0.5 0.625 0.5 0.625 0.5 0.625 0.5 0.375 0.5 0.375 0.5 0.375 0.5 0.375 0.5 0.625 0.5 0.625 0.5 0.625 0.5 0.625 0.5 0.625 0.5 0.625 0.5 0.375 0.5 0.375 0.5 0.625 0.5 0.625 0.5 0.625 0.5 0.375 0.5 0.375 0.5 0.375 0.5 0.375 0.5 0.625 0.5 0.625 0.5 0.6249999 0.5 0.625 0.5 0.625 0.5 0.375 0.5 0.625 0.5 0.6249999 0.5 0.375 0.5 0.375 0.5 0.375 0.5 0.375 0.5 0.375 0.5 0.375 0.5 0.625 0.5 0.375 0.5 0.375 0.5 0.625 0.5 0.625 0.5 0.625 0.5 0.625 0.5 0.375 0.5 0.375 0.5 0.375 0.5 0.375 0.5 0.375 0.5 0.625 0.5 0.625 0.5 0.375 0.5 0.375 0.5 0.625 0.5 0.625 0.5 0.625 0.5 0.625 0.5 0.625 0.5 0.375 0.5 0.625 0.5 0.625 0.5 0.375 0.5 0.625 0.5 0.625 0.5 0.625 0.5 0.375 0.5 0.375 0.5 0.625 0.5 0.375 0.5 0.375 0.5 0.375 0.5 0.625 0.5 0.625 0.5 0.375 0.5 0.625 0.5 0.625 0.5 0.625 0.5 0.625 0.5 0.625 0.5 0.375 0.5 0.375 0.5 0.375 0.5 0.375 0.5 0.625 0.5 0.625 0.5 0.375 0.5 0.375 0.5 0.375 0.5 0.375 0.5 0.375 0.5 0.375 0.5 0.625 0.5 0.625 0.5 0.625 0.5 0.625 0.5 0.375 0.5 0.375 0.5 0.625 0.5 0.625 0.5 0.625 0.5 0.625 0.5 0.375 0.5 0.375 0.5 0.625 0.5 0.375 0.5 0.375 0.5 0.375 0.5 0.625 0.5 0.625 0.5 0.625 0.5 0.625 0.5 0.625 0.5 0.625 0.5 0.375 0.5 0.375 0.5 0.375 0.5 0.375 0.5 0.375 0.5 0.625 0.5 0.625 0.5 0.625 0.5 0.375 0.5 0.625 0.5 0.625 0.5 0.375 0.5 0.375 0.5 0.375 0.5 0.375 0.5 0.375 0.5 0.375 0.5 0.375 0.5 0.625 0.5 0.625 0.5 0.625 0.5 0.625 0.5 0.625 0.5 0.375 0.5 0.375 0.5 0.375 0.5 0.625 0.5 0.625 0.5 0.625 0.5 0.625 0.5 0.375 0.5 0.375 0.5 0.625 0.5 0.375 0.5 0.375 0.5 0.625 0.5 0.375 0.5 0.375 0.5 0.375 0.5 0.375 0.5 0.375 0.5 0.375 0.5 0.375 0.5 0.375 0.5 0.375 0.5 0.625 0.5 0.625 0.5 0.625 0.5 0.375 0.5 0.375 0.5 0.625 0.5 0.625 0.5 0.625 0.5 0.375 0.5 0.625 0.5 0.625 0.5 0.375 0.5 0.375 0.5 0.375 0.5 0.625 0.5 0.625 0.5 0.625 0.5 0.625 0.5 0.375 0.5 0.375 0.5 0.375 0.5 0.625 0.5 0.625 0.5 0.375 0.5 0.375 0.5 0.375 0.5 0.625 0.5 0.625 0.5 0.625 0.5 0.625 0.5 0.625 0.5 0.625 0.5 0.375 0.5 0.625 0.75 0.625 0.75 0.375 0.75 0.8750001 0.75 0.8750001 0.75 0.625 0.75 0.375 0.75 0.375 0.75 0.125 0.75 0.375 0 0.375 0 0.625 0 0.625 0.5 0.625 0.5 0.375 0.5 0.625 0.5 0.625 0.5 0.625 0.5 0.375 0.5 0.375 0.5 0.625 0.5 0.375 0.5 0.375 0.5 0.375 0.5 0.625 0.75 0.625 0.5 0.375 0.5 0.375 0.75 0.375 0.5 0.375 0.5 0.375 0.5 0.625 0.5 0.625 0.75 0.625 0.75 0.625 0.75 0.625 0.5 0.375 0.75 0.375 0.75 0.625 0.75 0.375 0.75 0.375 0.75 0.625 0.75 0.375 0.75 0.375 0.75 0.375 0.75 0.625 0.75 0.625 0.75 0.375 0.75</float_array>
          <technique_common>
            <accessor source="#Cube_001-mesh-map-0-array" count="1056" stride="2">
              <param name="S" type="float"/>
              <param name="T" type="float"/>
            </accessor>
          </technique_common>
        </source>
        <vertices id="Cube_001-mesh-vertices">
          <input semantic="POSITION" source="#Cube_001-mesh-positions"/>
        </vertices>
        <triangles material="Material_002-material" count="352">
          <input semantic="VERTEX" source="#Cube_001-mesh-vertices" offset="0"/>
          <input semantic="NORMAL" source="#Cube_001-mesh-normals" offset="1"/>
          <input semantic="TEXCOORD" source="#Cube_001-mesh-map-0" offset="2" set="0"/>
          <p>1 0 0 2 0 1 0 0 2 7 1 3 32 1 4 3 1 5 7 2 6 4 2 7 6 2 8 172 1 9 9 1 10 173 1 11 6 3 12 0 3 13 2 3 14 3 1 15 5 1 16 7 1 17 11 3 18 12 3 19 8 3 20 174 1 21 8 1 22 172 1 23 173 1 24 10 1 25 175 1 26 175 1 27 11 1 28 174 1 29 14 4 30 12 4 31 15 4 32 8 0 33 13 0 34 9 0 35 9 1 36 14 1 37 10 1 38 17 3 39 23 3 40 19 3 41 20 2 42 23 2 43 21 2 44 20 1 45 24 1 46 16 1 47 18 1 48 20 1 49 16 1 50 19 4 51 22 4 52 18 4 53 26 1 54 28 1 55 24 1 56 17 3 57 27 3 58 21 3 59 21 2 60 26 2 61 20 2 62 16 0 63 25 0 64 17 0 65 29 3 66 63 3 67 31 3 68 27 2 69 30 2 70 26 2 71 25 3 72 31 3 73 27 3 74 24 0 75 29 0 76 25 0 77 35 1 78 36 1 79 32 1 80 3 0 81 33 0 82 2 0 83 6 2 84 35 2 85 7 2 86 2 3 87 34 3 88 6 3 89 52 1 90 40 1 91 53 1 92 32 0 93 37 0 94 33 0 95 34 2 96 39 2 97 35 2 98 33 3 99 38 3 100 34 3 101 42 4 102 48 4 103 43 4 104 53 0 105 41 0 106 54 0 107 55 2 108 43 2 109 52 2 110 54 3 111 42 3 112 55 3 113 47 1 114 96 1 115 44 1 116 41 3 117 46 3 118 42 3 119 43 1 120 44 1 121 40 1 122 40 0 123 45 0 124 41 0 125 48 1 126 78 1 127 50 1 128 46 3 129 49 3 130 42 3 131 43 1 132 50 1 133 47 1 134 47 5 135 51 5 136 46 5 137 37 3 138 55 3 139 38 3 140 39 1 141 58 1 142 52 1 143 36 0 144 54 0 145 37 0 146 39 1 147 53 1 148 36 1 149 57 2 150 58 2 151 56 2 152 52 5 153 59 5 154 55 5 155 55 3 156 57 3 157 38 3 158 38 4 159 56 4 160 39 4 161 60 5 162 63 5 163 61 5 164 28 0 165 61 0 166 29 0 167 30 1 168 60 1 169 28 1 170 30 1 171 66 1 172 62 1 173 65 4 174 68 4 175 64 4 176 63 3 177 65 3 178 31 3 179 31 4 180 64 4 181 30 4 182 62 5 183 67 5 184 63 5 185 69 2 186 70 2 187 68 2 188 64 1 189 70 1 190 66 1 191 81 2 192 74 2 193 82 2 194 67 3 195 69 3 196 65 3 197 72 5 198 75 5 199 73 5 200 82 1 201 72 1 202 84 1 203 84 0 204 73 0 205 86 0 206 86 3 207 75 3 208 81 3 209 66 5 210 71 5 211 67 5 212 77 2 213 78 2 214 76 2 215 51 3 216 95 3 217 79 3 218 51 3 219 77 3 220 49 3 221 49 4 222 76 4 223 48 4 224 87 3 225 81 3 226 80 3 227 87 3 228 90 3 229 86 3 230 83 1 231 84 1 232 85 1 233 80 4 234 85 4 235 87 4 236 83 1 237 182 1 238 82 1 239 89 0 240 90 0 241 91 0 242 84 1 243 89 1 244 85 1 245 85 4 246 91 4 247 87 4 248 86 5 249 88 5 250 84 5 251 92 5 252 95 5 253 93 5 254 50 0 255 93 0 256 51 0 257 78 1 258 92 1 259 50 1 260 79 2 261 94 2 262 78 2 263 99 1 264 100 1 265 96 1 266 44 0 267 97 0 268 45 0 269 46 2 270 99 2 271 47 2 272 45 3 273 98 3 274 46 3 275 100 5 276 102 5 277 101 5 278 96 0 279 101 0 280 97 0 281 120 3 282 105 3 283 122 3 284 97 3 285 102 3 286 98 3 287 105 2 288 106 2 289 104 2 290 121 5 291 107 5 292 120 5 293 176 3 294 126 3 295 177 3 296 123 1 297 106 1 298 121 1 299 99 1 300 110 1 301 103 1 302 98 4 303 111 4 304 99 4 305 103 5 306 108 5 307 102 5 308 102 3 309 109 3 310 98 3 311 111 1 312 113 1 313 110 1 314 115 2 315 116 2 316 114 2 317 110 5 318 112 5 319 108 5 320 108 3 321 114 3 322 109 3 323 117 4 324 118 4 325 119 4 326 109 0 327 119 0 328 111 0 329 111 1 330 118 1 331 115 1 332 114 3 333 117 3 334 109 3 335 126 4 336 124 4 337 127 4 338 127 2 339 177 2 340 178 2 341 178 1 342 124 1 343 179 1 344 179 2 345 125 2 346 176 2 347 104 2 348 128 2 349 105 2 350 123 1 351 131 1 352 104 1 353 122 0 354 130 0 355 123 0 356 105 3 357 129 3 358 122 3 359 131 2 360 132 2 361 128 2 362 130 1 363 135 1 364 131 1 365 134 4 366 136 4 367 133 4 368 128 3 369 133 3 370 129 3 371 138 2 372 144 2 373 136 2 374 133 3 375 137 3 376 129 3 377 129 5 378 139 5 379 130 5 380 130 1 381 138 1 382 134 1 383 141 0 384 142 0 385 143 0 386 139 1 387 142 1 388 138 1 389 137 5 390 143 5 391 139 5 392 136 3 393 141 3 394 137 3 395 147 1 396 149 1 397 145 1 398 142 1 399 145 1 400 138 1 401 136 3 402 146 3 403 140 3 404 140 0 405 147 0 406 142 0 407 149 4 408 150 4 409 148 4 410 145 2 411 148 2 412 144 2 413 144 3 414 150 3 415 146 3 416 150 3 417 152 3 418 146 3 419 153 1 420 159 1 421 155 1 422 151 4 423 154 4 424 150 4 425 146 5 426 153 5 427 147 5 428 147 1 429 155 1 430 151 1 431 156 0 432 159 0 433 157 0 434 152 5 435 157 5 436 153 5 437 154 3 438 156 3 439 152 3 440 154 3 441 162 3 442 158 3 443 160 3 444 166 3 445 162 3 446 159 1 447 161 1 448 155 1 449 158 0 450 163 0 451 159 0 452 155 2 453 160 2 454 154 2 455 165 4 456 166 4 457 164 4 458 162 0 459 167 0 460 163 0 461 163 1 462 165 1 463 161 1 464 160 3 465 170 3 466 164 3 467 169 2 468 170 2 469 168 2 470 164 4 471 171 4 472 165 4 473 165 1 474 169 1 475 161 1 476 161 5 477 168 5 478 160 5 479 5 2 480 174 2 481 4 2 482 1 1 483 175 1 484 5 1 485 4 3 486 172 3 487 0 3 488 0 0 489 173 0 490 1 0 491 135 2 492 176 2 493 132 2 494 134 1 495 179 1 496 135 1 497 133 0 498 178 0 499 134 0 500 132 3 501 177 3 502 133 3 503 20 6 504 177 6 505 21 6 506 21 3 507 126 3 508 23 3 509 126 7 510 22 7 511 23 7 512 20 1 513 127 1 514 178 1 515 180 2 516 182 2 517 183 2 518 80 4 519 183 4 520 83 4 521 81 3 522 180 3 523 80 3 524 82 5 525 181 5 526 81 5 527 1 0 528 3 0 529 2 0 530 7 1 531 35 1 532 32 1 533 7 2 534 5 2 535 4 2 536 172 1 537 8 1 538 9 1 539 6 3 540 4 3 541 0 3 542 3 1 543 1 1 544 5 1 545 11 3 546 15 3 547 12 3 548 174 1 549 11 1 550 8 1 551 173 1 552 9 1 553 10 1 554 175 1 555 10 1 556 11 1 557 14 4 558 13 4 559 12 4 560 8 0 561 12 0 562 13 0 563 9 1 564 13 1 565 14 1 566 17 3 567 21 3 568 23 3 569 20 2 570 22 2 571 23 2 572 20 1 573 26 1 574 24 1 575 18 1 576 22 1 577 20 1 578 19 4 579 23 4 580 22 4 581 26 1 582 30 1 583 28 1 584 17 3 585 25 3 586 27 3 587 21 2 588 27 2 589 26 2 590 16 0 591 24 0 592 25 0 593 29 3 594 61 3 595 63 3 596 27 2 597 31 2 598 30 2 599 25 3 600 29 3 601 31 3 602 24 0 603 28 0 604 29 0 605 35 1 606 39 1 607 36 1 608 3 0 609 32 0 610 33 0 611 6 2 612 34 2 613 35 2 614 2 3 615 33 3 616 34 3 617 52 1 618 43 1 619 40 1 620 32 0 621 36 0 622 37 0 623 34 2 624 38 2 625 39 2 626 33 3 627 37 3 628 38 3 629 42 4 630 49 4 631 48 4 632 53 0 633 40 0 634 41 0 635 55 2 636 42 2 637 43 2 638 54 3 639 41 3 640 42 3 641 47 1 642 99 1 643 96 1 644 41 3 645 45 3 646 46 3 647 43 1 648 47 1 649 44 1 650 40 0 651 44 0 652 45 0 653 48 1 654 76 1 655 78 1 656 46 3 657 51 3 658 49 3 659 43 1 660 48 1 661 50 1 662 47 5 663 50 5 664 51 5 665 37 3 666 54 3 667 55 3 668 39 1 669 56 1 670 58 1 671 36 0 672 53 0 673 54 0 674 39 1 675 52 1 676 53 1 677 57 2 678 59 2 679 58 2 680 52 5 681 58 5 682 59 5 683 55 3 684 59 3 685 57 3 686 38 4 687 57 4 688 56 4 689 60 5 690 62 5 691 63 5 692 28 0 693 60 0 694 61 0 695 30 1 696 62 1 697 60 1 698 30 1 699 64 1 700 66 1 701 65 4 702 69 4 703 68 4 704 63 3 705 67 3 706 65 3 707 31 4 708 65 4 709 64 4 710 62 5 711 66 5 712 67 5 713 69 2 714 71 2 715 70 2 716 64 1 717 68 1 718 70 1 719 81 2 720 75 2 721 74 2 722 67 3 723 71 3 724 69 3 725 72 5 726 74 5 727 75 5 728 82 1 729 74 1 730 72 1 731 84 0 732 72 0 733 73 0 734 86 3 735 73 3 736 75 3 737 66 5 738 70 5 739 71 5 740 77 2 741 79 2 742 78 2 743 51 3 744 93 3 745 95 3 746 51 3 747 79 3 748 77 3 749 49 4 750 77 4 751 76 4 752 87 3 753 86 3 754 81 3 755 87 3 756 91 3 757 90 3 758 83 1 759 82 1 760 84 1 761 80 4 762 83 4 763 85 4 764 83 1 765 183 1 766 182 1 767 89 0 768 88 0 769 90 0 770 84 1 771 88 1 772 89 1 773 85 4 774 89 4 775 91 4 776 86 5 777 90 5 778 88 5 779 92 5 780 94 5 781 95 5 782 50 0 783 92 0 784 93 0 785 78 1 786 94 1 787 92 1 788 79 2 789 95 2 790 94 2 791 99 1 792 103 1 793 100 1 794 44 0 795 96 0 796 97 0 797 46 2 798 98 2 799 99 2 800 45 3 801 97 3 802 98 3 803 100 5 804 103 5 805 102 5 806 96 0 807 100 0 808 101 0 809 120 3 810 107 3 811 105 3 812 97 3 813 101 3 814 102 3 815 105 2 816 107 2 817 106 2 818 121 5 819 106 5 820 107 5 821 176 3 822 125 3 823 126 3 824 123 1 825 104 1 826 106 1 827 99 1 828 111 1 829 110 1 830 98 4 831 109 4 832 111 4 833 103 5 834 110 5 835 108 5 836 102 3 837 108 3 838 109 3 839 111 1 840 115 1 841 113 1 842 115 2 843 118 2 844 116 2 845 110 5 846 113 5 847 112 5 848 108 3 849 112 3 850 114 3 851 117 4 852 116 4 853 118 4 854 109 0 855 117 0 856 119 0 857 111 1 858 119 1 859 118 1 860 114 3 861 116 3 862 117 3 863 126 4 864 125 4 865 124 4 866 127 2 867 126 2 868 177 2 869 178 1 870 127 1 871 124 1 872 179 2 873 124 2 874 125 2 875 104 2 876 131 2 877 128 2 878 123 1 879 130 1 880 131 1 881 122 0 882 129 0 883 130 0 884 105 3 885 128 3 886 129 3 887 131 2 888 135 2 889 132 2 890 130 1 891 134 1 892 135 1 893 134 4 894 138 4 895 136 4 896 128 3 897 132 3 898 133 3 899 138 2 900 145 2 901 144 2 902 133 3 903 136 3 904 137 3 905 129 5 906 137 5 907 139 5 908 130 1 909 139 1 910 138 1 911 141 0 912 140 0 913 142 0 914 139 1 915 143 1 916 142 1 917 137 5 918 141 5 919 143 5 920 136 3 921 140 3 922 141 3 923 147 1 924 151 1 925 149 1 926 142 1 927 147 1 928 145 1 929 136 3 930 144 3 931 146 3 932 140 0 933 146 0 934 147 0 935 149 4 936 151 4 937 150 4 938 145 2 939 149 2 940 148 2 941 144 3 942 148 3 943 150 3 944 150 3 945 154 3 946 152 3 947 153 1 948 157 1 949 159 1 950 151 4 951 155 4 952 154 4 953 146 5 954 152 5 955 153 5 956 147 1 957 153 1 958 155 1 959 156 0 960 158 0 961 159 0 962 152 5 963 156 5 964 157 5 965 154 3 966 158 3 967 156 3 968 154 3 969 160 3 970 162 3 971 160 3 972 164 3 973 166 3 974 159 1 975 163 1 976 161 1 977 158 0 978 162 0 979 163 0 980 155 2 981 161 2 982 160 2 983 165 4 984 167 4 985 166 4 986 162 0 987 166 0 988 167 0 989 163 1 990 167 1 991 165 1 992 160 3 993 168 3 994 170 3 995 169 2 996 171 2 997 170 2 998 164 4 999 170 4 1000 171 4 1001 165 1 1002 171 1 1003 169 1 1004 161 5 1005 169 5 1006 168 5 1007 5 2 1008 175 2 1009 174 2 1010 1 1 1011 173 1 1012 175 1 1013 4 3 1014 174 3 1015 172 3 1016 0 0 1017 172 0 1018 173 0 1019 135 2 1020 179 2 1021 176 2 1022 134 1 1023 178 1 1024 179 1 1025 133 0 1026 177 0 1027 178 0 1028 132 3 1029 176 3 1030 177 3 1031 20 8 1032 178 8 1033 177 8 1034 21 3 1035 177 3 1036 126 3 1037 126 9 1038 127 9 1039 22 9 1040 20 1 1041 22 1 1042 127 1 1043 180 2 1044 181 2 1045 182 2 1046 80 4 1047 180 4 1048 183 4 1049 81 3 1050 181 3 1051 180 3 1052 82 5 1053 182 5 1054 181 5 1055</p>
        </triangles>
      </mesh>
    </geometry>
  </library_geometries>
  <library_visual_scenes>
    <visual_scene id="Scene" name="Scene">
      <node id="Light_001" name="Light.001" type="NODE">
        <matrix sid="transform">-0.2908646 -0.7711008 0.5663932 4.076245 0.9551712 -0.1998834 0.2183912 1.005454 -0.055189 0.6045247 0.7946723 5.903862 0 0 0 1</matrix>
        <instance_light url="#Light_001-light"/>
      </node>
      <node id="Camera_001" name="Camera.001" type="NODE">
        <matrix sid="transform">0.6859207 -0.3240135 0.6515582 7.358891 0.7276763 0.3054209 -0.6141704 -6.925791 -4.01133e-9 0.8953956 0.4452714 4.958309 0 0 0 1</matrix>
        <instance_camera url="#Camera_001-camera"/>
      </node>
      <node id="Cube" name="Cube" type="NODE">
        <matrix sid="transform">0.1191073 0 0 -1.269846 0 1 0 0 0 0 1 1.000739 0 0 0 1</matrix>
        <instance_geometry url="#Cube_001-mesh" name="Cube">
          <bind_material>
            <technique_common>
              <instance_material symbol="Material_002-material" target="#Material_002-material">
                <bind_vertex_input semantic="Cube_001-mesh-map-0" input_semantic="TEXCOORD" input_set="0"/>
              </instance_material>
            </technique_common>
          </bind_material>
        </instance_geometry>
      </node>
      <node id="Camera" name="Camera" type="NODE">
        <matrix sid="transform">0.6859207 -0.3240135 0.6515582 7.358891 0.7276763 0.3054208 -0.6141704 -6.925791 0 0.8953956 0.4452714 4.958309 0 0 0 1</matrix>
        <instance_camera url="#Camera-camera"/>
      </node>
      <node id="Light" name="Light" type="NODE">
        <matrix sid="transform">-0.2908646 -0.7711008 0.5663932 4.076245 0.9551712 -0.1998834 0.2183912 1.005454 -0.05518906 0.6045247 0.7946723 5.903862 0 0 0 1</matrix>
        <instance_light url="#Light-light"/>
      </node>
    </visual_scene>
  </library_visual_scenes>
  <scene>
    <instance_visual_scene url="#Scene"/>
  </scene>
</COLLADA>